<svg xmlns="http://www.w3.org/2000/svg" xmlns:xlink="http://www.w3.org/1999/xlink" width="50" zoomAndPan="magnify" viewBox="0 0 37.5 37.499999" height="50" preserveAspectRatio="xMidYMid meet" version="1.0"><defs><clipPath id="3782a27891"><path d="M 23.519531 23.5625 L 37.007812 23.5625 L 37.007812 37.007812 L 23.519531 37.007812 Z M 23.519531 23.5625 " clip-rule="nonzero"/></clipPath></defs><g clip-path="url(#3782a27891)"><path fill="#343434" d="M 26.507812 24.410156 C 27.203125 23.714844 28.324219 23.714844 28.980469 24.410156 L 36.980469 32.40625 C 37.671875 33.105469 37.671875 34.222656 36.980469 34.882812 L 34.851562 37.003906 C 34.507812 37.355469 34.082031 37.507812 33.617188 37.507812 C 33.152344 37.507812 32.6875 37.316406 32.378906 37.003906 L 24.378906 29.007812 C 23.6875 28.3125 23.6875 27.191406 24.378906 26.535156 L 26.507812 24.410156 " fill-opacity="1" fill-rule="nonzero"/></g><path fill="#343434" d="M 7.074219 21.785156 C 9.042969 23.753906 11.628906 24.835938 14.414062 24.835938 C 17.195312 24.835938 19.785156 23.753906 21.757812 21.785156 C 25.8125 17.726562 25.8125 11.15625 21.757812 7.140625 C 17.699219 3.082031 11.089844 3.082031 7.074219 7.101562 C 3.015625 11.15625 3.015625 17.726562 7.074219 21.78125 Z M 5.140625 5.207031 C 10.238281 0.0703125 18.550781 0.0703125 23.648438 5.207031 C 28.207031 9.765625 28.75 17.03125 24.960938 22.207031 L 25.386719 22.632812 C 25.773438 23.019531 25.773438 23.675781 25.386719 24.0625 L 23.996094 25.453125 C 23.609375 25.839844 22.949219 25.839844 22.566406 25.453125 L 22.140625 25.027344 C 19.859375 26.726562 17.121094 27.539062 14.414062 27.539062 C 11.050781 27.539062 7.652344 26.265625 5.140625 23.714844 C 0.0390625 18.574219 0.0390625 10.304688 5.140625 5.207031 " fill-opacity="1" fill-rule="nonzero"/></svg>